<?xml version="1.0" encoding="utf-8" ?>
<svg baseProfile="full" height="66px" version="1.1" width="66px" xmlns="http://www.w3.org/2000/svg" xmlns:ev="http://www.w3.org/2001/xml-events" xmlns:xlink="http://www.w3.org/1999/xlink"><defs /><path d="M 36 24 L 36 18 L 30 18 L 30 24 Z" fill="rgb(255, 0, 77)" fill-rule="evenodd" /><path d="M 30 30 L 30 24 L 24 24 L 24 30 Z" fill="rgb(255, 163, 0)" fill-rule="evenodd" /><path d="M 36 42 L 36 36 L 42 36 L 42 30 L 36 30 L 36 24 L 30 24 L 30 30 L 24 30 L 24 36 L 30 36 L 30 42 Z" fill="rgb(255, 241, 232)" fill-rule="evenodd" /><path d="M 42 30 L 42 24 L 36 24 L 36 30 Z" fill="rgb(255, 204, 170)" fill-rule="evenodd" /><path d="M 24 36 L 24 30 L 18 30 L 18 36 Z" fill="rgb(255, 236, 39)" fill-rule="evenodd" /><path d="M 48 36 L 48 30 L 42 30 L 42 36 Z" fill="rgb(255, 119, 168)" fill-rule="evenodd" /><path d="M 30 42 L 30 36 L 24 36 L 24 42 Z" fill="rgb(0, 228, 54)" fill-rule="evenodd" /><path d="M 42 42 L 42 36 L 36 36 L 36 42 Z" fill="rgb(131, 118, 156)" fill-rule="evenodd" /><path d="M 36 48 L 36 42 L 30 42 L 30 48 Z" fill="rgb(41, 173, 255)" fill-rule="evenodd" /></svg>