<?xml version="1.0" encoding="UTF-8" standalone="no"?>
<svg
   height="26"
   version="1.1"
   width="34"
   id="svg14"
   sodipodi:docname="controller2.svg"
   inkscape:version="1.1 (c68e22c387, 2021-05-23)"
   xmlns:inkscape="http://www.inkscape.org/namespaces/inkscape"
   xmlns:sodipodi="http://sodipodi.sourceforge.net/DTD/sodipodi-0.dtd"
   xmlns="http://www.w3.org/2000/svg"
   xmlns:svg="http://www.w3.org/2000/svg">
  <sodipodi:namedview
     id="namedview16"
     pagecolor="#ffffff"
     bordercolor="#666666"
     borderopacity="1.0"
     inkscape:pageshadow="2"
     inkscape:pageopacity="0.0"
     inkscape:pagecheckerboard="0"
     showgrid="false"
     width="34px"
     inkscape:zoom="6.4727467"
     inkscape:cx="20.31595"
     inkscape:cy="-3.0126314"
     inkscape:window-width="1280"
     inkscape:window-height="659"
     inkscape:window-x="-7"
     inkscape:window-y="-7"
     inkscape:window-maximized="1"
     inkscape:current-layer="svg14" />
  <defs
     id="defs2" />
  <path
     style="color:#000000;fill:#f4f4f4;fill-opacity:1;fill-rule:evenodd;-inkscape-stroke:none"
     d="m 4.75,0.75 v 4 h -4 v 8.5 h 8 v 4 h 8 v 4 h 12.5 V 21 17.25 h 4 v -8.5 h -4 v -4 h -8 v -4 z m 0.5,0.5 h 15.5 v 4 h 8 v 3.5 h -4 v 4 h -4 v 4.5 h 4.5 v -4 h 4 v -4 h 3.5 v 7.5 h -4 v 4 h -11.5 v -4 h -8 v -3.5 h 8 v -8.5 h -8.5 v 8 h -7.5 v -7.5 h 4 z m 4,4 h 7.5 v 7.5 h -7.5 z m 16,4 h 3.5 v 3.5 h -3.5 z m -4,4 h 3.5 v 3.5 h -3.5 z"
     id="path4" />
  <path
     style="color:#000000;fill:#f4f4f4;fill-opacity:1;fill-rule:evenodd;-inkscape-stroke:none"
     d="m 8.75,4.75 v 8 h -8 v 4.5 h 8 v 4 h 8 v 4 h 12.5 V 25 21.25 h 4 v -4.5 h -4.5 v 4 h -11.5 v -4 h -8 v -3.5 h 8 v -8.5 z m 0.5,0.5 h 7.5 v 7.5 h -7.5 z m -8,8 h 7.5 v 3.5 h -7.5 z m 8,4 h 7.5 v 3.5 h -7.5 z m 20,0 h 3.5 v 3.5 h -3.5 z m -12,4 h 11.5 v 3.5 h -11.5 z"
     id="path6" />
</svg>
