<?xml version="1.0" encoding="UTF-8" standalone="no"?>
<svg
   height="30px"
   version="1.1"
   width="30px"
   id="svg22"
   sodipodi:docname="controller.svg"
   inkscape:version="1.1 (c68e22c387, 2021-05-23)"
   xmlns:inkscape="http://www.inkscape.org/namespaces/inkscape"
   xmlns:sodipodi="http://sodipodi.sourceforge.net/DTD/sodipodi-0.dtd"
   xmlns="http://www.w3.org/2000/svg"
   xmlns:svg="http://www.w3.org/2000/svg">
  <sodipodi:namedview
     id="namedview24"
     pagecolor="#ffffff"
     bordercolor="#666666"
     borderopacity="1.0"
     inkscape:pageshadow="2"
     inkscape:pageopacity="0.0"
     inkscape:pagecheckerboard="0"
     showgrid="false"
     inkscape:zoom="11.219428"
     inkscape:cx="16.177296"
     inkscape:cy="18.049049"
     inkscape:window-width="1280"
     inkscape:window-height="659"
     inkscape:window-x="-7"
     inkscape:window-y="-7"
     inkscape:window-maximized="1"
     inkscape:current-layer="svg22" />
  <defs
     id="defs2" />
  <g
     id="g1049"
     transform="matrix(0.98360656,0,0,0.98360656,0.2459016,0.2459016)">
    <path
       style="color:#000000;fill:#f4f4f4;fill-opacity:1;fill-rule:evenodd;-inkscape-stroke:none"
       d="m 11.75,-0.25 v 6.5 h 6.5 V 6 -0.25 Z m 0.5,0.5 h 5.5 v 5.5 h -5.5 z"
       id="path4" />
    <path
       style="color:#000000;fill:#f4f4f4;fill-opacity:1;fill-rule:evenodd;-inkscape-stroke:none"
       d="m 5.75,5.75 v 6.5 h 6.5 V 12 5.75 Z m 0.5,0.5 h 5.5 v 5.5 h -5.5 z"
       id="path6" />
    <path
       style="color:#000000;fill:#f4f4f4;fill-opacity:1;fill-rule:evenodd;-inkscape-stroke:none"
       d="m 17.75,5.75 v 6.5 h 6.5 V 12 5.75 Z m 0.5,0.5 h 5.5 v 5.5 h -5.5 z"
       id="path10" />
    <path
       style="color:#000000;fill:#f4f4f4;fill-opacity:1;fill-rule:evenodd;-inkscape-stroke:none"
       d="m -0.25,11.75 v 6.5 h 6.5 V 18 11.75 Z m 0.5,0.5 h 5.5 v 5.5 h -5.5 z"
       id="path12" />
    <path
       style="color:#000000;fill:#f4f4f4;fill-opacity:1;fill-rule:evenodd;-inkscape-stroke:none"
       d="m 23.75,11.75 v 6.5 h 6.5 V 18 11.75 Z m 0.5,0.5 h 5.5 v 5.5 h -5.5 z"
       id="path14" />
    <path
       style="color:#000000;fill:#f4f4f4;fill-opacity:1;fill-rule:evenodd;-inkscape-stroke:none"
       d="m 5.75,17.75 v 6.5 h 6.5 V 24 17.75 Z m 0.5,0.5 h 5.5 v 5.5 h -5.5 z"
       id="path16" />
    <path
       style="color:#000000;fill:#f4f4f4;fill-opacity:1;fill-rule:evenodd;-inkscape-stroke:none"
       d="m 17.75,17.75 v 6.5 h 6.5 V 24 17.75 Z m 0.5,0.5 h 5.5 v 5.5 h -5.5 z"
       id="path18" />
    <path
       style="color:#000000;fill:#f4f4f4;fill-opacity:1;fill-rule:evenodd;-inkscape-stroke:none"
       d="m 11.75,23.75 v 6.5 h 6.5 V 30 23.75 Z m 0.5,0.5 h 5.5 v 5.5 h -5.5 z"
       id="path20" />
  </g>
</svg>
