<?xml version="1.0" encoding="utf-8" ?>
<svg baseProfile="full" height="40px" version="1.1" width="40px" xmlns="http://www.w3.org/2000/svg" xmlns:ev="http://www.w3.org/2001/xml-events" xmlns:xlink="http://www.w3.org/1999/xlink"><defs /><path d="M 23 11 L 23 5 L 17 5 L 17 11 Z" fill="rgb(255, 0, 77)" fill-rule="evenodd" /><path d="M 17 17 L 17 11 L 11 11 L 11 17 Z" fill="rgb(255, 163, 0)" fill-rule="evenodd" /><path d="M 23 29 L 23 23 L 29 23 L 29 17 L 23 17 L 23 11 L 17 11 L 17 17 L 11 17 L 11 23 L 17 23 L 17 29 Z" fill="rgb(255, 241, 232)" fill-rule="evenodd" /><path d="M 29 17 L 29 11 L 23 11 L 23 17 Z" fill="rgb(255, 204, 170)" fill-rule="evenodd" /><path d="M 11 23 L 11 17 L 5 17 L 5 23 Z" fill="rgb(255, 255, 39)" fill-rule="evenodd" /><path d="M 35 23 L 35 17 L 29 17 L 29 23 Z" fill="rgb(255, 119, 168)" fill-rule="evenodd" /><path d="M 17 29 L 17 23 L 11 23 L 11 29 Z" fill="rgb(0, 231, 86)" fill-rule="evenodd" /><path d="M 29 29 L 29 23 L 23 23 L 23 29 Z" fill="rgb(131, 118, 156)" fill-rule="evenodd" /><path d="M 23 35 L 23 29 L 17 29 L 17 35 Z" fill="rgb(41, 173, 255)" fill-rule="evenodd" /></svg>