<?xml version="1.0" encoding="utf-8" ?>
<svg baseProfile="full" height="30px" version="1.1" width="30px" xmlns="http://www.w3.org/2000/svg" xmlns:ev="http://www.w3.org/2001/xml-events" xmlns:xlink="http://www.w3.org/1999/xlink"><defs /><path d="M 18 6 L 18 0 L 12 0 L 12 6 Z" fill="rgb(255, 0, 77)" fill-rule="evenodd" /><path d="M 12 12 L 12 6 L 6 6 L 6 12 Z" fill="rgb(255, 163, 0)" fill-rule="evenodd" /><path d="M 18 24 L 18 18 L 24 18 L 24 12 L 18 12 L 18 6 L 12 6 L 12 12 L 6 12 L 6 18 L 12 18 L 12 24 Z" fill="rgb(255, 241, 232)" fill-rule="evenodd" /><path d="M 24 12 L 24 6 L 18 6 L 18 12 Z" fill="rgb(255, 204, 170)" fill-rule="evenodd" /><path d="M 6 18 L 6 12 L 0 12 L 0 18 Z" fill="rgb(255, 255, 39)" fill-rule="evenodd" /><path d="M 30 18 L 30 12 L 24 12 L 24 18 Z" fill="rgb(255, 119, 168)" fill-rule="evenodd" /><path d="M 12 24 L 12 18 L 6 18 L 6 24 Z" fill="rgb(0, 231, 86)" fill-rule="evenodd" /><path d="M 24 24 L 24 18 L 18 18 L 18 24 Z" fill="rgb(131, 118, 156)" fill-rule="evenodd" /><path d="M 18 30 L 18 24 L 12 24 L 12 30 Z" fill="rgb(41, 173, 255)" fill-rule="evenodd" /></svg>