<?xml version="1.0" encoding="UTF-8" standalone="no"?>
<!-- Created with Inkscape (http://www.inkscape.org/) -->

<svg
   version="1.1"
   id="svg2"
   xml:space="preserve"
   width="364.112"
   height="59.4884"
   viewBox="0 0 364.112 59.4884"
   sodipodi:docname="Pokemon Mini.svg"
   inkscape:version="1.1 (c68e22c387, 2021-05-23)"
   xmlns:inkscape="http://www.inkscape.org/namespaces/inkscape"
   xmlns:sodipodi="http://sodipodi.sourceforge.net/DTD/sodipodi-0.dtd"
   xmlns="http://www.w3.org/2000/svg"
   xmlns:svg="http://www.w3.org/2000/svg"><defs
     id="defs6"><clipPath
       clipPathUnits="userSpaceOnUse"
       id="clipPath16"><path
         d="M 0,44.616 H 273.084 V 0 H 0 Z"
         id="path14" /></clipPath></defs><sodipodi:namedview
     id="namedview4"
     pagecolor="#ffffff"
     bordercolor="#666666"
     borderopacity="1.0"
     inkscape:pageshadow="2"
     inkscape:pageopacity="0.0"
     inkscape:pagecheckerboard="0"
     showgrid="false"
     inkscape:zoom="2.56"
     inkscape:cx="74.804688"
     inkscape:cy="59.570313"
     inkscape:window-width="1280"
     inkscape:window-height="659"
     inkscape:window-x="-7"
     inkscape:window-y="-7"
     inkscape:window-maximized="1"
     inkscape:current-layer="g8" /><g
     id="g8"
     inkscape:groupmode="layer"
     inkscape:label="Pokemon Mini"
     transform="matrix(1.3333333,0,0,-1.3333333,0,59.4884)"><g
       id="g10"><g
         id="g12"
         clip-path="url(#clipPath16)"><g
           id="g18"
           transform="translate(201.6667,2.7274)"><path
             d="m 0,0 c -3.309,0 -6,2.691 -6,6 v 9.5 h -0.5 v -9 c 0,-3.309 -2.691,-6 -6,-6 -3.309,0 -6,2.691 -6,6 v 15 c 0,3.309 2.691,6 6,6 h 26 c 3.309,0 6,-2.691 6,-6 v -15 c 0,-3.309 -2.691,-6 -6,-6 -3.309,0 -6,2.691 -6,6 v 9 H 6 V 6 C 6,2.691 3.309,0 0,0"
             style="fill:#f5ee08;fill-opacity:1;fill-rule:nonzero;stroke:none"
             id="path20" /></g><g
           id="g22"
           transform="translate(215.1667,32.7274)"><path
             d="m 0,0 h -26 c -4.687,0 -8.5,-3.813 -8.5,-8.5 v -15 c 0,-4.687 3.813,-8.5 8.5,-8.5 2.35,0 4.48,0.958 6.02,2.505 1.56,-1.837 3.886,-3.005 6.48,-3.005 2.863,0 5.4,1.423 6.941,3.599 C -4.999,-30.792 -2.638,-32 0,-32 c 4.687,0 8.5,3.813 8.5,8.5 v 15 C 8.5,-3.813 4.687,0 0,0 m 0,-5 c 1.933,0 3.5,-1.567 3.5,-3.5 v -15 C 3.5,-25.433 1.933,-27 0,-27 c -1.933,0 -3.5,1.567 -3.5,3.5 V -12 H -10 v -12 c 0,-1.933 -1.567,-3.5 -3.5,-3.5 -1.933,0 -3.5,1.567 -3.5,3.5 v 12 h -5.5 v -11.5 c 0,-1.933 -1.567,-3.5 -3.5,-3.5 -1.933,0 -3.5,1.567 -3.5,3.5 v 15 c 0,1.933 1.567,3.5 3.5,3.5 H 0"
             style="fill:#000000;fill-opacity:1;fill-rule:nonzero;stroke:none"
             id="path24" /></g><g
           id="g26"
           transform="translate(226.6667,2.7274)"><path
             d="m 0,0 c -3.309,0 -6,2.691 -6,6 v 7 c 0,3.309 2.691,6 6,6 3.309,0 6,-2.691 6,-6 V 6 C 6,2.691 3.309,0 0,0"
             style="fill:#f5ee08;fill-opacity:1;fill-rule:nonzero;stroke:none"
             id="path28" /></g><g
           id="g30"
           transform="translate(226.6667,24.2274)"><path
             d="m 0,0 c -4.687,0 -8.5,-3.813 -8.5,-8.5 v -7 c 0,-4.687 3.813,-8.5 8.5,-8.5 4.687,0 8.5,3.813 8.5,8.5 v 7 C 8.5,-3.813 4.687,0 0,0 m 0,-5 c 1.933,0 3.5,-1.567 3.5,-3.5 v -7 C 3.5,-17.433 1.933,-19 0,-19 c -1.933,0 -3.5,1.567 -3.5,3.5 v 7 c 0,1.933 1.567,3.5 3.5,3.5"
             style="fill:#000000;fill-opacity:1;fill-rule:nonzero;stroke:none"
             id="path32" /></g><g
           id="g34"
           transform="translate(226.6667,17.7274)"><path
             d="m 0,0 c -3.309,0 -6,2.691 -6,6 v 1 c 0,3.309 2.691,6 6,6 3.309,0 6,-2.691 6,-6 V 6 C 6,2.691 3.309,0 0,0"
             style="fill:#f5ee08;fill-opacity:1;fill-rule:nonzero;stroke:none"
             id="path36" /></g><g
           id="g38"
           transform="translate(226.6667,33.2274)"><path
             d="m 0,0 c -4.687,0 -8.5,-3.813 -8.5,-8.5 v -1 c 0,-4.687 3.813,-8.5 8.5,-8.5 4.687,0 8.5,3.813 8.5,8.5 v 1 C 8.5,-3.813 4.687,0 0,0 m 0,-5 c 1.933,0 3.5,-1.567 3.5,-3.5 v -1 C 3.5,-11.433 1.933,-13 0,-13 c -1.933,0 -3.5,1.567 -3.5,3.5 v 1 c 0,1.933 1.567,3.5 3.5,3.5"
             style="fill:#000000;fill-opacity:1;fill-rule:nonzero;stroke:none"
             id="path40" /></g><g
           id="g42"
           transform="translate(252.4831,3.2274)"><path
             d="m 0,0 c -3.309,0 -6,2.691 -6,6 v 9 H -6.899 V 6 c 0,-3.309 -2.692,-6 -6,-6 -3.309,0 -6,2.691 -6,6 v 15 c 0,3.309 2.691,6 6,6 H 0 c 3.309,0 6,-2.691 6,-6 V 6 C 6,2.691 3.309,0 0,0"
             style="fill:#f5ee08;fill-opacity:1;fill-rule:nonzero;stroke:none"
             id="path44" /></g><g
           id="g46"
           transform="translate(252.4831,32.7274)"><path
             d="m 0,0 h -12.899 c -4.687,0 -8.5,-3.813 -8.5,-8.5 v -15 c 0,-4.687 3.813,-8.5 8.5,-8.5 2.576,0 4.889,1.153 6.449,2.969 C -4.89,-30.847 -2.577,-32 0,-32 c 4.687,0 8.5,3.813 8.5,8.5 v 15 C 8.5,-3.813 4.687,0 0,0 m 0,-5 c 1.933,0 3.5,-1.567 3.5,-3.5 v -15 C 3.5,-25.433 1.933,-27 0,-27 c -1.933,0 -3.5,1.567 -3.5,3.5 V -12 h -5.899 v -11.5 c 0,-1.933 -1.568,-3.5 -3.5,-3.5 -1.933,0 -3.5,1.567 -3.5,3.5 v 15 c 0,1.933 1.567,3.5 3.5,3.5 H 0"
             style="fill:#000000;fill-opacity:1;fill-rule:nonzero;stroke:none"
             id="path48" /></g><g
           id="g50"
           transform="translate(264.5837,2.7274)"><path
             d="m 0,0 c -3.309,0 -6,2.691 -6,6 v 7 c 0,3.309 2.691,6 6,6 3.309,0 6,-2.691 6,-6 V 6 C 6,2.691 3.309,0 0,0"
             style="fill:#f5ee08;fill-opacity:1;fill-rule:nonzero;stroke:none"
             id="path52" /></g><g
           id="g54"
           transform="translate(264.5837,24.2274)"><path
             d="m 0,0 c -4.687,0 -8.5,-3.813 -8.5,-8.5 v -7 c 0,-4.687 3.813,-8.5 8.5,-8.5 4.687,0 8.5,3.813 8.5,8.5 v 7 C 8.5,-3.813 4.687,0 0,0 m 0,-5 c 1.933,0 3.5,-1.567 3.5,-3.5 v -7 C 3.5,-17.433 1.933,-19 0,-19 c -1.933,0 -3.5,1.567 -3.5,3.5 v 7 c 0,1.933 1.567,3.5 3.5,3.5"
             style="fill:#000000;fill-opacity:1;fill-rule:nonzero;stroke:none"
             id="path56" /></g><g
           id="g58"
           transform="translate(264.5837,17.7274)"><path
             d="m 0,0 c -3.309,0 -6,2.691 -6,6 v 1 c 0,3.309 2.691,6 6,6 3.309,0 6,-2.691 6,-6 V 6 C 6,2.691 3.309,0 0,0"
             style="fill:#f5ee08;fill-opacity:1;fill-rule:nonzero;stroke:none"
             id="path60" /></g><g
           id="g62"
           transform="translate(264.5837,33.2274)"><path
             d="m 0,0 c -4.687,0 -8.5,-3.813 -8.5,-8.5 v -1 c 0,-4.687 3.813,-8.5 8.5,-8.5 4.687,0 8.5,3.813 8.5,8.5 v 1 C 8.5,-3.813 4.687,0 0,0 m 0,-5 c 1.933,0 3.5,-1.567 3.5,-3.5 v -1 C 3.5,-11.433 1.933,-13 0,-13 c -1.933,0 -3.5,1.567 -3.5,3.5 v 1 c 0,1.933 1.567,3.5 3.5,3.5"
             style="fill:#000000;fill-opacity:1;fill-rule:nonzero;stroke:none"
             id="path64" /></g><g
           id="g66"
           transform="translate(215.1667,27.7274)"><path
             d="m 0,0 h -26 c -1.933,0 -3.5,-1.567 -3.5,-3.5 v -15 c 0,-1.933 1.567,-3.5 3.5,-3.5 1.933,0 3.5,1.567 3.5,3.5 V -7 h 5.5 v -12 c 0,-1.933 1.567,-3.5 3.5,-3.5 1.933,0 3.5,1.567 3.5,3.5 v 12 h 6.5 v -11.5 c 0,-1.933 1.567,-3.5 3.5,-3.5 1.933,0 3.5,1.567 3.5,3.5 v 15 C 3.5,-1.567 1.933,0 0,0"
             style="fill:#f5ee08;fill-opacity:1;fill-rule:nonzero;stroke:none"
             id="path68" /></g><g
           id="g70"
           transform="translate(226.6667,19.2274)"><path
             d="m 0,0 c -1.933,0 -3.5,-1.567 -3.5,-3.5 v -7 c 0,-1.933 1.567,-3.5 3.5,-3.5 1.933,0 3.5,1.567 3.5,3.5 v 7 C 3.5,-1.567 1.933,0 0,0"
             style="fill:#f5ee08;fill-opacity:1;fill-rule:nonzero;stroke:none"
             id="path72" /></g><g
           id="g74"
           transform="translate(226.6667,28.2274)"><path
             d="m 0,0 c -1.933,0 -3.5,-1.567 -3.5,-3.5 v -1 c 0,-1.933 1.567,-3.5 3.5,-3.5 1.933,0 3.5,1.567 3.5,3.5 v 1 C 3.5,-1.567 1.933,0 0,0"
             style="fill:#f5ee08;fill-opacity:1;fill-rule:nonzero;stroke:none"
             id="path76" /></g><g
           id="g78"
           transform="translate(252.4831,27.7274)"><path
             d="m 0,0 h -12.899 c -1.933,0 -3.5,-1.567 -3.5,-3.5 v -15 c 0,-1.933 1.567,-3.5 3.5,-3.5 1.932,0 3.5,1.567 3.5,3.5 V -7 H -3.5 v -11.5 c 0,-1.933 1.567,-3.5 3.5,-3.5 1.933,0 3.5,1.567 3.5,3.5 v 15 C 3.5,-1.567 1.933,0 0,0"
             style="fill:#f5ee08;fill-opacity:1;fill-rule:nonzero;stroke:none"
             id="path80" /></g><g
           id="g82"
           transform="translate(264.5837,19.2274)"><path
             d="m 0,0 c -1.933,0 -3.5,-1.567 -3.5,-3.5 v -7 c 0,-1.933 1.567,-3.5 3.5,-3.5 1.933,0 3.5,1.567 3.5,3.5 v 7 C 3.5,-1.567 1.933,0 0,0"
             style="fill:#f5ee08;fill-opacity:1;fill-rule:nonzero;stroke:none"
             id="path84" /></g><g
           id="g86"
           transform="translate(264.5837,28.2274)"><path
             d="m 0,0 c -1.933,0 -3.5,-1.567 -3.5,-3.5 v -1 c 0,-1.933 1.567,-3.5 3.5,-3.5 1.933,0 3.5,1.567 3.5,3.5 v 1 C 3.5,-1.567 1.933,0 0,0"
             style="fill:#f5ee08;fill-opacity:1;fill-rule:nonzero;stroke:none"
             id="path88" /></g><g
           id="g90"
           transform="translate(15.3102,22.9921)"><path
             d="M 0,0 C 0.784,0.219 1.376,0.535 1.376,0.916 1.376,1.473 0.915,1.868 0,2.096 Z m -10.311,-20.491 c -1.38,0 -2.499,1.119 -2.499,2.5 v 28.277 c 0,1.381 1.119,2.5 2.5,2.5 h 7.929 c 0.203,0.014 0.652,0.039 1.274,0.039 7.136,0 14.762,-3.085 14.762,-11.744 0,-5.878 -2.789,-8.689 -5.129,-10.013 -2.729,-1.543 -5.911,-1.754 -8.396,-1.757 0.074,-8.225 0.008,-8.291 -0.755,-9.061 -0.469,-0.475 -1.11,-0.742 -1.777,-0.742 -10e-4,0 -7.909,0.001 -7.909,0.001"
             style="fill:#000000;fill-opacity:1;fill-rule:nonzero;stroke:none"
             id="path92" /></g><g
           id="g94"
           transform="translate(14.2026,38.3167)"><path
             d="m 0,0 c -0.608,0 -1.077,-0.022 -1.352,-0.039 h -7.851 c -2.761,0 -5,-2.238 -5,-5 v -28.277 c 0,-2.761 2.239,-5 5,-5 h 7.812 c 0.032,0 0.064,-10e-4 0.096,-10e-4 1.334,0 2.615,0.534 3.554,1.483 1.47,1.484 1.479,2.987 1.491,5.068 0.006,0.925 0.004,2.142 -0.002,3.362 11.686,1.036 13.515,9.177 13.515,14.16 C 17.263,-5.591 10.487,0 0,0 m -1.338,-18.158 c 0.617,0 6.321,0.099 6.321,3.749 0,3.858 -4.835,3.913 -6.375,3.913 v -7.661 c 0,0 0.018,-0.001 0.054,-0.001 M 0,-5 c 3.28,0 12.263,-0.774 12.263,-9.244 0,-8.536 -6.594,-9.27 -11.094,-9.27 -0.934,0 -1.779,0.032 -2.455,0.032 0,0 0.095,-9.835 -0.009,-9.835 0,0 -0.001,10e-4 -0.002,10e-4 h -7.906 v 28.277 h 8.023 c 0,0 0.448,0.039 1.18,0.039"
             style="fill:#000000;fill-opacity:1;fill-rule:nonzero;stroke:none"
             id="path96" /></g><g
           id="g98"
           transform="translate(38.154,19.5878)"><path
             d="m 0,0 c -0.561,0 -1.591,-1.28 -1.591,-3.371 0,-2.09 1.03,-3.37 1.591,-3.37 0.561,0 1.591,1.28 1.591,3.37 C 1.591,-1.28 0.561,0 0,0 m 0.106,-17.088 c -7.53,0 -13.657,6.178 -13.657,13.773 0,7.594 6.127,13.772 13.657,13.772 7.531,0 13.658,-6.178 13.658,-13.772 0,-7.595 -6.127,-13.773 -13.658,-13.773"
             style="fill:#000000;fill-opacity:1;fill-rule:nonzero;stroke:none"
             id="path100" /></g><g
           id="g102"
           transform="translate(38.2603,32.5447)"><path
             d="m 0,0 c -8.909,0 -16.158,-7.3 -16.158,-16.272 0,-8.973 7.249,-16.273 16.158,-16.273 8.909,0 16.158,7.3 16.158,16.273 C 16.158,-7.3 8.909,0 0,0 m -0.106,-22.198 c 2.259,0 4.091,2.628 4.091,5.871 0,3.242 -1.832,5.87 -4.091,5.87 -2.26,0 -4.091,-2.628 -4.091,-5.87 0,-3.243 1.831,-5.871 4.091,-5.871 M 0,-5 c 6.162,0 11.158,-5.047 11.158,-11.272 0,-6.226 -4.996,-11.273 -11.158,-11.273 -6.162,0 -11.158,5.047 -11.158,11.273 C -11.158,-10.047 -6.162,-5 0,-5"
             style="fill:#000000;fill-opacity:1;fill-rule:nonzero;stroke:none"
             id="path104" /></g><g
           id="g106"
           transform="translate(140.1667,19.5878)"><path
             d="m 0,0 c -0.561,0 -1.591,-1.28 -1.591,-3.371 0,-2.09 1.03,-3.37 1.591,-3.37 0.561,0 1.591,1.28 1.591,3.37 C 1.591,-1.28 0.561,0 0,0 m 0.106,-17.088 c -7.531,0 -13.658,6.178 -13.658,13.773 0,7.594 6.127,13.772 13.658,13.772 7.531,0 13.658,-6.178 13.658,-13.772 0,-7.595 -6.127,-13.773 -13.658,-13.773"
             style="fill:#000000;fill-opacity:1;fill-rule:nonzero;stroke:none"
             id="path108" /></g><g
           id="g110"
           transform="translate(140.2728,32.5447)"><path
             d="m 0,0 c -8.909,0 -16.158,-7.3 -16.158,-16.272 0,-8.973 7.249,-16.273 16.158,-16.273 8.909,0 16.158,7.3 16.158,16.273 C 16.158,-7.3 8.909,0 0,0 m -0.106,-22.198 c 2.259,0 4.091,2.628 4.091,5.871 0,3.242 -1.832,5.87 -4.091,5.87 -2.26,0 -4.091,-2.628 -4.091,-5.87 0,-3.243 1.831,-5.871 4.091,-5.871 M 0,-5 c 6.162,0 11.158,-5.047 11.158,-11.272 0,-6.226 -4.996,-11.273 -11.158,-11.273 -6.162,0 -11.158,5.047 -11.158,11.273 C -11.158,-10.047 -6.162,-5 0,-5"
             style="fill:#000000;fill-opacity:1;fill-rule:nonzero;stroke:none"
             id="path112" /></g><g
           id="g114"
           transform="translate(64.029,2.4999)"><path
             d="M 0,0 C -0.957,0 -1.83,0.546 -2.249,1.407 L -2.436,1.793 C -2.741,0.757 -3.7,0 -4.835,0 h -7.598 c -1.38,0 -2.5,1.119 -2.5,2.5 v 31.475 c 0,1.38 1.12,2.5 2.5,2.5 h 7.598 c 1.381,0 2.5,-1.12 2.5,-2.5 v -8.589 l 0.176,0.301 c 0.448,0.768 1.27,1.24 2.159,1.24 h 8.023 c 0.907,0 1.744,-0.491 2.185,-1.284 0.441,-0.793 0.417,-1.763 -0.061,-2.534 L 4.466,13.956 10.204,3.723 C 10.638,2.949 10.629,2.002 10.18,1.236 9.731,0.471 8.911,0 8.023,0 Z"
             style="fill:#000000;fill-opacity:1;fill-rule:nonzero;stroke:none"
             id="path116" /></g><g
           id="g118"
           transform="translate(59.1941,41.4744)"><path
             d="m 0,0 h -7.598 c -2.761,0 -5,-2.239 -5,-5 v -31.474 c 0,-2.762 2.239,-5 5,-5 H 0 c 0.877,0 1.702,0.226 2.418,0.622 0.727,-0.401 1.555,-0.622 2.417,-0.622 h 8.023 c 1.775,0 3.417,0.941 4.314,2.473 0.897,1.531 0.915,3.424 0.047,4.972 l -5.016,8.946 4.903,7.899 c 0.957,1.542 1.004,3.482 0.121,5.068 -0.882,1.586 -2.554,2.569 -4.369,2.569 L 5,-9.547 V -5 C 5,-2.239 2.761,0 0,0 m 0,-5 v -17.833 l 4.835,8.286 h 8.023 L 6.364,-25.009 h 0.065 l 6.429,-11.465 H 4.835 L 0,-26.529 v -9.945 H -7.598 V -5 L 0,-5"
             style="fill:#000000;fill-opacity:1;fill-rule:nonzero;stroke:none"
             id="path120" /></g><g
           id="g122"
           transform="translate(77.4182,26.0922)"><path
             d="m 0,0 c -0.338,0 -0.675,0.068 -0.993,0.206 -0.658,0.284 -1.162,0.838 -1.384,1.52 0,0 -1.331,4.086 -1.437,4.419 -0.351,1.089 0.084,2.277 1.054,2.884 l 10.573,6.615 c 0.402,0.251 0.862,0.38 1.326,0.38 0.263,0 0.528,-0.042 0.783,-0.126 0.706,-0.233 1.271,-0.768 1.543,-1.46 L 13.697,8.761 C 14.179,7.535 13.626,6.145 12.434,5.584 L 1.064,0.238 C 0.727,0.08 0.364,0 0,0"
             style="fill:#000000;fill-opacity:1;fill-rule:nonzero;stroke:none"
             id="path124" /></g><g
           id="g126"
           transform="translate(86.5571,44.6163)"><path
             d="m 0,0 c -0.928,0 -1.848,-0.258 -2.652,-0.761 l -10.573,-6.615 c -1.94,-1.213 -2.808,-3.589 -2.109,-5.767 0.107,-0.332 1.441,-4.429 1.441,-4.429 0.444,-1.364 1.453,-2.472 2.769,-3.041 0.634,-0.275 1.31,-0.411 1.985,-0.411 0.728,0 1.454,0.158 2.128,0.475 l 11.37,5.347 c 2.385,1.121 3.49,3.901 2.526,6.354 L 4.653,-3.171 C 4.109,-1.787 2.978,-0.717 1.566,-0.252 1.055,-0.083 0.526,0 0,0 m 0,-5 2.231,-5.678 -11.37,-5.346 c 0,0 -1.328,4.079 -1.434,4.409 L 0,-5"
             style="fill:#000000;fill-opacity:1;fill-rule:nonzero;stroke:none"
             id="path128" /></g><g
           id="g130"
           transform="translate(83.4221,2.4999)"><path
             d="m 0,0 c -11.151,0 -13.498,10.148 -13.498,12.146 l -0.003,0.129 c -0.138,5.121 1.173,9.25 3.793,11.941 2.185,2.245 5.147,3.384 8.805,3.384 3.574,0 6.481,-1.184 8.639,-3.52 4.309,-4.664 3.761,-12.251 3.735,-12.572 C 11.392,10.506 10.729,9.681 9.832,9.355 V 4.154 C 9.832,3.383 9.476,2.655 8.868,2.181 8.399,1.817 5.773,0 0,0"
             style="fill:#000000;fill-opacity:1;fill-rule:nonzero;stroke:none"
             id="path132" /></g><g
           id="g134"
           transform="translate(82.5189,32.5998)"><path
             d="m 0,0 c -5.428,0 -8.758,-2.251 -10.597,-4.14 -3.101,-3.186 -4.657,-7.941 -4.5,-13.752 l 0.002,-0.102 c 0,-3.87 3.792,-14.606 15.998,-14.606 6.424,0 9.587,2.073 10.403,2.708 1.217,0.947 1.929,2.403 1.929,3.946 v 3.842 c 0.917,0.829 1.527,1.995 1.632,3.314 0.072,0.916 0.566,9.1 -4.392,14.466 C 7.862,-1.495 4.24,0 0,0 m -3.56,-14.15 c 0,0 3.23,0.073 5.338,0.073 0.905,0 1.604,-0.013 1.751,-0.052 0.008,-0.017 0.015,-0.026 0.022,-0.026 0.003,0 0.006,0.002 0.009,0.005 0.007,0.008 -0.007,0.015 -0.031,0.021 -0.166,0.355 -0.541,4.333 -3.582,4.333 -3.241,0 -3.507,-4.354 -3.507,-4.354 M 0,-5 c 10.945,0 9.882,-13.395 9.882,-13.395 H -3.347 c 0,-1.102 1.009,-3.858 4.941,-3.858 3.932,0 6.641,1.709 6.641,1.709 v -5.402 c 0,0 -2.125,-1.654 -7.332,-1.654 -9.457,0 -10.998,8.709 -10.998,9.646 C -10.095,-17.016 -10.945,-5 0,-5"
             style="fill:#000000;fill-opacity:1;fill-rule:nonzero;stroke:none"
             id="path136" /></g><g
           id="g138"
           transform="translate(95.3766,2.4999)"><path
             d="m 0,0 c -1.381,0 -2.5,1.119 -2.5,2.5 v 22.016 c 0,1.38 1.119,2.5 2.5,2.5 h 6.429 c 0.748,0 1.419,-0.329 1.877,-0.849 1.191,0.616 2.459,0.937 3.755,0.937 2.192,0 4.176,-0.765 5.806,-2.203 1.77,1.377 4.253,2.037 6.201,2.037 5.77,0 9.241,-3.386 9.523,-9.292 l 0.007,-0.134 c -0.012,0.165 -0.045,0.332 -0.098,0.497 0.313,-1.247 0.273,-4.411 0.135,-15.32 -0.017,-1.368 -1.132,-2.468 -2.5,-2.468 h -6.641 c -1.381,0 -2.5,1.119 -2.5,2.5 v 11.244 c 0,0.053 0.001,0.104 0.005,0.157 0.017,0.343 -0.016,0.753 -0.078,1.099 -0.163,-0.427 -0.303,-1.012 -0.347,-1.516 V 2.776 c 0,-1.381 -1.119,-2.5 -2.5,-2.5 h -6.907 c -1.381,0 -2.5,1.119 -2.5,2.5 v 10.859 c 0,0.059 0.002,0.118 0.006,0.178 C 9.699,14.238 9.658,14.751 9.58,15.156 9.391,14.845 9.162,14.378 8.929,13.707 V 2.5 C 8.929,1.119 7.81,0 6.429,0 Z"
             style="fill:#000000;fill-opacity:1;fill-rule:nonzero;stroke:none"
             id="path140" /></g><g
           id="g142"
           transform="translate(107.4374,32.1037)"><path
             d="m 0,0 c -1.183,0 -2.342,-0.199 -3.453,-0.587 -0.659,0.32 -1.398,0.499 -2.179,0.499 h -6.429 c -2.761,0 -5,-2.239 -5,-5 v -22.016 c 0,-2.761 2.239,-5 5,-5 h 6.429 c 1.155,0 2.219,0.392 3.065,1.05 0.773,-0.49 1.69,-0.774 2.673,-0.774 h 6.907 c 0.981,0 1.896,0.282 2.667,0.77 0.79,-0.522 1.736,-0.825 2.753,-0.825 h 6.641 c 2.737,0 4.965,2.2 5,4.936 0,0 0.045,3.596 0.069,7.214 0.012,1.822 0.018,3.651 0.01,5.035 -0.007,1.291 -0.012,2.276 -0.139,3.101 C 23.58,-4.538 18.999,-0.165 12.008,-0.165 9.914,-0.165 7.755,-0.7 5.912,-1.689 4.149,-0.587 2.138,0 0,0 m 0,-5 c 4.272,0 5.99,-4.029 6.055,-4.029 0.001,0 0.002,0.002 0.002,0.005 0,2.471 3.56,3.859 5.951,3.859 7.658,0 6.901,-7.225 7.06,-7.225 0.002,0 0.004,0.001 0.006,0.004 10e-4,10e-4 0.003,0.002 0.004,0.002 0.18,0 -0.004,-14.499 -0.004,-14.499 h -6.641 v 11.245 c 0,0 0.265,4.244 -2.444,4.244 -2.71,0 -2.976,-4.41 -2.976,-4.41 V -26.828 H 0.106 v 10.859 c 0,0 0.319,4.465 -2.444,4.465 -1.713,0 -2.752,-2.268 -3.294,-3.991 v -11.609 h -6.429 v 22.016 h 6.429 V -8.376 C -4.547,-6.891 -2.647,-5 0,-5"
             style="fill:#000000;fill-opacity:1;fill-rule:nonzero;stroke:none"
             id="path144" /></g><g
           id="g146"
           transform="translate(166.9313,2.4999)"><path
             d="m 0,0 c -1.381,0 -2.5,1.119 -2.5,2.5 v 11.167 c 0,0.064 0.002,0.128 0.007,0.191 0.038,0.583 -0.07,1.363 -0.225,1.733 -0.374,-0.181 -0.931,-0.909 -0.931,-1.449 V 2.533 c 0,-1.381 -1.12,-2.5 -2.5,-2.5 h -6.89 c -1.381,0 -2.5,1.119 -2.5,2.5 v 21.443 c 0,1.38 1.119,2.5 2.5,2.5 h 6.89 c 0.48,0 0.928,-0.136 1.309,-0.371 1.116,0.606 2.62,1.032 4.726,1.032 7.323,0 9.673,-5.149 9.913,-8.233 0.007,-0.063 0.01,-0.127 0.012,-0.191 L 9.902,13.88 V 2.5 C 9.902,1.119 8.783,0 7.402,0 Z"
             style="fill:#000000;fill-opacity:1;fill-rule:nonzero;stroke:none"
             id="path148" /></g><g
           id="g150"
           transform="translate(166.8173,32.1368)"><path
             d="m 0,0 c -1.969,0 -3.54,-0.321 -4.806,-0.814 -0.393,0.1 -0.805,0.153 -1.23,0.153 h -6.889 c -2.762,0 -5,-2.239 -5,-5 v -21.443 c 0,-2.761 2.238,-5 5,-5 h 6.889 c 1.15,0 2.209,0.388 3.054,1.041 0.851,-0.673 1.927,-1.074 3.096,-1.074 h 7.402 c 2.761,0 5,2.239 5,5 v 11.333 c 0,0.032 0,0.064 -10e-4,0.095 l -0.092,4.833 c -0.002,0.121 -0.009,0.241 -0.02,0.36 C 11.999,-5.432 7.963,0 0,0 m 0,-5 c 7.186,0 7.419,-5.975 7.424,-5.975 0,0 0,10e-4 0,0.004 l 0.092,-4.833 V -27.137 H 0.114 v 11.168 c 0,0 0.342,4.465 -2.619,4.465 -1.837,0 -3.531,-2.15 -3.531,-3.991 v -11.609 h -6.889 v 21.443 h 6.889 V -8.376 C -4.873,-6.891 -4.159,-5 0,-5"
             style="fill:#000000;fill-opacity:1;fill-rule:nonzero;stroke:none"
             id="path152" /></g><g
           id="g154"
           transform="translate(12.8103,20.1593)"><path
             d="M 0,0 V 7.662 C 1.541,7.662 6.376,7.607 6.376,3.748 6.376,-0.11 0,0 0,0 M 0.213,13.119 H -7.81 v -28.277 h 7.906 c 0.106,-0.111 0.01,9.833 0.01,9.833 3.932,0 13.549,-1.07 13.549,9.239 0,10.362 -13.442,9.205 -13.442,9.205"
             style="fill:#ffffff;fill-opacity:1;fill-rule:nonzero;stroke:none"
             id="path156" /></g><g
           id="g158"
           transform="translate(38.1541,10.3468)"><path
             d="m 0,0 c -2.259,0 -4.091,2.628 -4.091,5.87 0,3.243 1.832,5.871 4.091,5.871 2.259,0 4.091,-2.628 4.091,-5.871 C 4.091,2.628 2.259,0 0,0 m 0.106,17.198 c -6.162,0 -11.157,-5.047 -11.157,-11.272 0,-6.226 4.995,-11.273 11.157,-11.273 6.162,0 11.158,5.047 11.158,11.273 0,6.225 -4.996,11.272 -11.158,11.272"
             style="fill:#ffffff;fill-opacity:1;fill-rule:nonzero;stroke:none"
             id="path160" /></g><g
           id="g162"
           transform="translate(140.1665,10.3468)"><path
             d="m 0,0 c -2.259,0 -4.091,2.628 -4.091,5.87 0,3.243 1.832,5.871 4.091,5.871 2.259,0 4.091,-2.628 4.091,-5.871 C 4.091,2.628 2.259,0 0,0 m 0.106,17.198 c -6.162,0 -11.157,-5.047 -11.157,-11.272 0,-6.226 4.995,-11.273 11.157,-11.273 6.162,0 11.158,5.047 11.158,11.273 0,6.225 -4.996,11.272 -11.158,11.272"
             style="fill:#ffffff;fill-opacity:1;fill-rule:nonzero;stroke:none"
             id="path164" /></g><g
           id="g166"
           transform="translate(72.0519,5)"><path
             d="M 0,0 -6.429,11.465 H -6.494 L 0,21.927 h -8.023 l -4.835,-8.285 v 17.832 h -7.598 V 0 h 7.598 V 9.946 L -8.023,0 Z"
             style="fill:#ffffff;fill-opacity:1;fill-rule:nonzero;stroke:none"
             id="path168" /></g><g
           id="g170"
           transform="translate(75.9837,33.0017)"><path
             d="m 0,0 c 0.106,-0.331 1.435,-4.41 1.435,-4.41 l 11.37,5.347 -2.232,5.678 z"
             style="fill:#ffffff;fill-opacity:1;fill-rule:nonzero;stroke:none"
             id="path172" /></g><g
           id="g174"
           transform="translate(86.0478,18.4708)"><path
             d="m 0,0 c -0.489,0.129 -7.089,-0.021 -7.089,-0.021 0,0 0.266,4.354 3.507,4.354 C -0.541,4.333 -0.166,0.355 0,0 0.024,-0.006 0.038,-0.013 0.031,-0.021 0.021,-0.031 0.011,-0.023 0,0 m -3.529,9.129 c -10.945,0 -10.095,-12.016 -10.095,-12.954 0,-0.937 1.541,-9.646 10.998,-9.646 5.207,0 7.332,1.654 7.332,1.654 v 5.402 c 0,0 -2.709,-1.709 -6.641,-1.709 -3.932,0 -4.941,2.756 -4.941,3.859 h 13.23 c 0,0 1.062,13.394 -9.883,13.394"
             style="fill:#ffffff;fill-opacity:1;fill-rule:nonzero;stroke:none"
             id="path176" /></g><g
           id="g178"
           transform="translate(126.5117,19.7174)"><path
             d="m 0,0 c -0.186,-0.193 0.691,7.221 -7.066,7.221 -2.391,0 -5.951,-1.388 -5.951,-3.859 0,-0.165 -1.7,4.024 -6.057,4.024 -2.647,0 -4.547,-1.891 -5.632,-3.376 v 3.288 h -6.429 v -22.015 h 6.429 v 11.608 c 0.542,1.723 1.581,3.991 3.294,3.991 2.763,0 2.444,-4.465 2.444,-4.465 v -10.859 h 6.907 v 11.024 c 0,0 0.266,4.41 2.976,4.41 2.709,0 2.444,-4.244 2.444,-4.244 V -14.497 H 0 c 0,0 0.186,14.69 0,14.497"
             style="fill:#ffffff;fill-opacity:1;fill-rule:nonzero;stroke:none"
             id="path180" /></g><g
           id="g182"
           transform="translate(174.2414,21.1653)"><path
             d="m 0,0 c 0,-0.165 -0.142,5.971 -7.424,5.971 -4.159,0 -4.873,-1.891 -6.036,-3.376 V 5.31 h -6.889 v -21.442 h 6.889 v 11.608 c 0,1.841 1.694,3.991 3.531,3.991 2.96,0 2.619,-4.465 2.619,-4.465 v -11.167 h 7.402 v 11.333 z"
             style="fill:#ffffff;fill-opacity:1;fill-rule:nonzero;stroke:none"
             id="path184" /></g></g></g></g></svg>
