<?xml version="1.0" encoding="utf-8" ?>
<svg baseProfile="full" height="78px" version="1.1" width="286px" xmlns="http://www.w3.org/2000/svg" xmlns:ev="http://www.w3.org/2001/xml-events" xmlns:xlink="http://www.w3.org/1999/xlink"><defs /><path d="M 242 74 L 242 32 L 208 32 L 208 48 L 200 48 L 200 74 Z M 162 74 L 162 66 L 170 66 L 170 32 L 136 32 L 136 40 L 128 40 L 128 74 Z M 122 74 L 122 64 L 106 64 L 106 42 L 122 42 L 122 32 L 96 32 L 96 40 L 88 40 L 88 74 Z M 82 74 L 82 64 L 74 64 L 74 42 L 82 42 L 82 32 L 48 32 L 48 42 L 56 42 L 56 64 L 48 64 L 48 74 Z M 18 74 L 18 58 L 42 58 L 42 32 L 8 32 L 8 40 L 0 40 L 0 74 Z M 241 73 L 241 33 L 209 33 L 209 49 L 201 49 L 201 73 Z M 161 73 L 161 65 L 169 65 L 169 33 L 137 33 L 137 41 L 129 41 L 129 73 Z M 121 73 L 121 65 L 105 65 L 105 41 L 121 41 L 121 33 L 97 33 L 97 41 L 89 41 L 89 73 Z M 81 73 L 81 65 L 73 65 L 73 41 L 81 41 L 81 33 L 49 33 L 49 41 L 57 41 L 57 65 L 49 65 L 49 73 Z M 17 73 L 17 57 L 41 57 L 41 33 L 9 33 L 9 41 L 1 41 L 1 73 Z M 233 65 L 233 57 L 217 57 L 217 65 Z M 153 65 L 153 41 L 145 41 L 145 65 Z M 232 64 L 232 58 L 218 58 L 218 64 Z M 152 64 L 152 42 L 146 42 L 146 64 Z M 194 58 L 194 48 L 176 48 L 176 58 Z M 193 57 L 193 49 L 177 49 L 177 57 Z M 233 49 L 233 41 L 217 41 L 217 49 Z M 25 49 L 25 41 L 17 41 L 17 49 Z M 232 48 L 232 42 L 218 42 L 218 48 Z M 24 48 L 24 42 L 18 42 L 18 48 Z M 266 42 L 266 34 L 274 34 L 274 26 L 282 26 L 282 16 L 274 16 L 274 8 L 266 8 L 266 0 L 256 0 L 256 8 L 248 8 L 248 16 L 240 16 L 240 26 L 248 26 L 248 34 L 256 34 L 256 42 Z M 265 41 L 265 33 L 273 33 L 273 25 L 281 25 L 281 17 L 273 17 L 273 9 L 265 9 L 265 1 L 257 1 L 257 9 L 249 9 L 249 17 L 241 17 L 241 25 L 249 25 L 249 33 L 257 33 L 257 41 Z" fill="rgb(0, 0, 0)" fill-rule="evenodd" /><path d="M 265 9 L 265 1 L 257 1 L 257 9 Z" fill="rgb(255, 0, 77)" fill-rule="evenodd" /><path d="M 246 78 L 246 36 L 242 36 L 242 74 L 204 74 L 204 78 Z M 166 78 L 166 70 L 174 70 L 174 36 L 170 36 L 170 66 L 162 66 L 162 74 L 132 74 L 132 78 Z M 126 78 L 126 68 L 122 68 L 122 74 L 92 74 L 92 78 Z M 86 78 L 86 68 L 82 68 L 82 74 L 52 74 L 52 78 Z M 22 78 L 22 62 L 46 62 L 46 36 L 42 36 L 42 58 L 18 58 L 18 74 L 4 74 L 4 78 Z M 222 64 L 222 62 L 232 62 L 232 58 L 218 58 L 218 64 Z M 150 64 L 150 46 L 152 46 L 152 42 L 146 42 L 146 64 Z M 110 64 L 110 46 L 126 46 L 126 36 L 122 36 L 122 42 L 106 42 L 106 64 Z M 78 64 L 78 46 L 86 46 L 86 36 L 82 36 L 82 42 L 74 42 L 74 64 Z M 198 62 L 198 52 L 194 52 L 194 58 L 180 58 L 180 62 Z M 222 48 L 222 46 L 232 46 L 232 42 L 218 42 L 218 48 Z M 22 48 L 22 46 L 24 46 L 24 42 L 18 42 L 18 48 Z M 270 46 L 270 38 L 278 38 L 278 30 L 286 30 L 286 20 L 282 20 L 282 26 L 274 26 L 274 34 L 266 34 L 266 42 L 260 42 L 260 46 Z M 56 46 L 56 42 L 52 42 L 52 46 Z M 256 38 L 256 34 L 252 34 L 252 38 Z M 248 30 L 248 26 L 244 26 L 244 30 Z M 278 16 L 278 12 L 274 12 L 274 16 Z M 270 8 L 270 4 L 266 4 L 266 8 Z" fill="rgb(29, 43, 83)" fill-rule="evenodd" /><path d="M 257 17 L 257 9 L 249 9 L 249 17 Z" fill="rgb(255, 163, 0)" fill-rule="evenodd" /><path d="M 241 73 L 241 33 L 209 33 L 209 49 L 201 49 L 201 73 Z M 161 73 L 161 65 L 169 65 L 169 33 L 137 33 L 137 41 L 129 41 L 129 73 Z M 121 73 L 121 65 L 105 65 L 105 41 L 121 41 L 121 33 L 97 33 L 97 41 L 89 41 L 89 73 Z M 81 73 L 81 65 L 73 65 L 73 41 L 81 41 L 81 33 L 49 33 L 49 41 L 57 41 L 57 65 L 49 65 L 49 73 Z M 17 73 L 17 57 L 41 57 L 41 33 L 9 33 L 9 41 L 1 41 L 1 73 Z M 233 65 L 233 57 L 217 57 L 217 65 Z M 153 65 L 153 41 L 145 41 L 145 65 Z M 193 57 L 193 49 L 177 49 L 177 57 Z M 233 49 L 233 41 L 217 41 L 217 49 Z M 25 49 L 25 41 L 17 41 L 17 49 Z M 265 33 L 265 25 L 273 25 L 273 17 L 265 17 L 265 9 L 257 9 L 257 17 L 249 17 L 249 25 L 257 25 L 257 33 Z" fill="rgb(255, 241, 232)" fill-rule="evenodd" /><path d="M 273 17 L 273 9 L 265 9 L 265 17 Z" fill="rgb(255, 204, 170)" fill-rule="evenodd" /><path d="M 249 25 L 249 17 L 241 17 L 241 25 Z" fill="rgb(255, 236, 39)" fill-rule="evenodd" /><path d="M 281 25 L 281 17 L 273 17 L 273 25 Z" fill="rgb(255, 119, 168)" fill-rule="evenodd" /><path d="M 257 33 L 257 25 L 249 25 L 249 33 Z" fill="rgb(0, 228, 54)" fill-rule="evenodd" /><path d="M 273 33 L 273 25 L 265 25 L 265 33 Z" fill="rgb(131, 118, 156)" fill-rule="evenodd" /><path d="M 265 41 L 265 33 L 257 33 L 257 41 Z" fill="rgb(41, 173, 255)" fill-rule="evenodd" /></svg>