<?xml version="1.0" encoding="utf-8" ?>
<svg baseProfile="full" height="81px" version="1.1" width="285px" xmlns="http://www.w3.org/2000/svg" xmlns:ev="http://www.w3.org/2001/xml-events" xmlns:xlink="http://www.w3.org/1999/xlink"><defs /><path d="M 249 81 L 249 41 L 242 41 L 242 32 L 208 32 L 208 48 L 200 48 L 200 57 L 194 57 L 194 48 L 177 48 L 177 41 L 170 41 L 170 32 L 136 32 L 136 40 L 128 40 L 128 41 L 122 41 L 122 32 L 96 32 L 96 40 L 88 40 L 88 41 L 82 41 L 82 32 L 48 32 L 48 41 L 42 41 L 42 32 L 8 32 L 8 40 L 0 40 L 0 74 L 9 74 L 9 81 L 25 81 L 25 65 L 48 65 L 48 74 L 57 74 L 57 81 L 89 81 L 89 74 L 97 74 L 97 81 L 129 81 L 129 74 L 137 74 L 137 81 L 169 81 L 169 73 L 177 73 L 177 58 L 185 58 L 185 65 L 200 65 L 200 74 L 209 74 L 209 81 Z M 241 73 L 241 33 L 209 33 L 209 49 L 201 49 L 201 73 Z M 161 73 L 161 65 L 169 65 L 169 33 L 137 33 L 137 41 L 129 41 L 129 73 Z M 121 73 L 121 65 L 105 65 L 105 41 L 121 41 L 121 33 L 97 33 L 97 41 L 89 41 L 89 73 Z M 81 73 L 81 65 L 73 65 L 73 41 L 81 41 L 81 33 L 49 33 L 49 41 L 57 41 L 57 65 L 49 65 L 49 73 Z M 17 73 L 17 57 L 41 57 L 41 33 L 9 33 L 9 41 L 1 41 L 1 73 Z M 128 69 L 128 49 L 113 49 L 113 64 L 122 64 L 122 69 Z M 88 69 L 88 49 L 81 49 L 81 64 L 82 64 L 82 69 Z M 233 65 L 233 57 L 217 57 L 217 65 Z M 153 65 L 153 41 L 145 41 L 145 65 Z M 56 64 L 56 42 L 49 42 L 49 64 Z M 193 57 L 193 49 L 177 49 L 177 57 Z M 233 49 L 233 41 L 217 41 L 217 49 Z M 25 49 L 25 41 L 17 41 L 17 49 Z M 269 45 L 269 37 L 277 37 L 277 29 L 285 29 L 285 21 L 282 21 L 282 16 L 274 16 L 274 8 L 266 8 L 266 0 L 256 0 L 256 8 L 248 8 L 248 16 L 240 16 L 240 26 L 248 26 L 248 34 L 256 34 L 256 42 L 261 42 L 261 45 Z M 265 41 L 265 33 L 273 33 L 273 25 L 281 25 L 281 17 L 273 17 L 273 9 L 265 9 L 265 1 L 257 1 L 257 9 L 249 9 L 249 17 L 241 17 L 241 25 L 249 25 L 249 33 L 257 33 L 257 41 Z" fill="rgb(29, 43, 83)" fill-rule="evenodd" /><path d="M 265 9 L 265 1 L 257 1 L 257 9 Z" fill="rgb(255, 0, 77)" fill-rule="evenodd" /><path d="M 257 17 L 257 9 L 249 9 L 249 17 Z" fill="rgb(255, 163, 0)" fill-rule="evenodd" /><path d="M 241 73 L 241 33 L 209 33 L 209 49 L 201 49 L 201 73 Z M 161 73 L 161 65 L 169 65 L 169 33 L 137 33 L 137 41 L 129 41 L 129 73 Z M 121 73 L 121 65 L 105 65 L 105 41 L 121 41 L 121 33 L 97 33 L 97 41 L 89 41 L 89 73 Z M 81 73 L 81 65 L 73 65 L 73 41 L 81 41 L 81 33 L 49 33 L 49 41 L 57 41 L 57 65 L 49 65 L 49 73 Z M 17 73 L 17 57 L 41 57 L 41 33 L 9 33 L 9 41 L 1 41 L 1 73 Z M 233 65 L 233 57 L 217 57 L 217 65 Z M 153 65 L 153 41 L 145 41 L 145 65 Z M 193 57 L 193 49 L 177 49 L 177 57 Z M 233 49 L 233 41 L 217 41 L 217 49 Z M 25 49 L 25 41 L 17 41 L 17 49 Z M 265 33 L 265 25 L 273 25 L 273 17 L 265 17 L 265 9 L 257 9 L 257 17 L 249 17 L 249 25 L 257 25 L 257 33 Z" fill="rgb(255, 241, 232)" fill-rule="evenodd" /><path d="M 273 17 L 273 9 L 265 9 L 265 17 Z" fill="rgb(255, 204, 170)" fill-rule="evenodd" /><path d="M 249 25 L 249 17 L 241 17 L 241 25 Z" fill="rgb(255, 236, 39)" fill-rule="evenodd" /><path d="M 281 25 L 281 17 L 273 17 L 273 25 Z" fill="rgb(255, 119, 168)" fill-rule="evenodd" /><path d="M 257 33 L 257 25 L 249 25 L 249 33 Z" fill="rgb(0, 228, 54)" fill-rule="evenodd" /><path d="M 273 33 L 273 25 L 265 25 L 265 33 Z" fill="rgb(131, 118, 156)" fill-rule="evenodd" /><path d="M 265 41 L 265 33 L 257 33 L 257 41 Z" fill="rgb(41, 173, 255)" fill-rule="evenodd" /></svg>