<?xml version="1.0" encoding="utf-8" ?>
<svg baseProfile="full" height="65px" version="1.1" width="224px" xmlns="http://www.w3.org/2000/svg" xmlns:ev="http://www.w3.org/2001/xml-events" xmlns:xlink="http://www.w3.org/1999/xlink"><defs /><path d="M 191 62 L 191 28 L 164 28 L 164 41 L 158 41 L 158 62 Z M 129 62 L 129 55 L 135 55 L 135 28 L 108 28 L 108 35 L 102 35 L 102 62 Z M 98 62 L 98 53 L 86 53 L 86 37 L 98 37 L 98 28 L 77 28 L 77 35 L 71 35 L 71 62 Z M 67 62 L 67 53 L 61 53 L 61 37 L 67 37 L 67 28 L 40 28 L 40 37 L 47 37 L 47 53 L 40 53 L 40 62 Z M 18 62 L 18 49 L 36 49 L 36 28 L 10 28 L 10 35 L 3 35 L 3 62 Z M 190 61 L 190 29 L 165 29 L 165 42 L 159 42 L 159 61 Z M 128 61 L 128 54 L 134 54 L 134 29 L 109 29 L 109 36 L 103 36 L 103 61 Z M 97 61 L 97 54 L 85 54 L 85 36 L 97 36 L 97 29 L 78 29 L 78 36 L 72 36 L 72 61 Z M 66 61 L 66 54 L 60 54 L 60 36 L 66 36 L 66 29 L 41 29 L 41 36 L 48 36 L 48 54 L 41 54 L 41 61 Z M 17 61 L 17 48 L 35 48 L 35 29 L 11 29 L 11 36 L 4 36 L 4 61 Z M 183 54 L 183 48 L 171 48 L 171 54 Z M 122 54 L 122 36 L 116 36 L 116 54 Z M 182 53 L 182 49 L 172 49 L 172 53 Z M 121 53 L 121 37 L 117 37 L 117 53 Z M 154 49 L 154 41 L 139 41 L 139 49 Z M 153 48 L 153 42 L 140 42 L 140 48 Z M 183 42 L 183 36 L 171 36 L 171 42 Z M 23 42 L 23 36 L 17 36 L 17 42 Z M 182 41 L 182 37 L 172 37 L 172 41 Z M 22 41 L 22 37 L 18 37 L 18 41 Z M 209 37 L 209 30 L 215 30 L 215 24 L 221 24 L 221 16 L 215 16 L 215 10 L 209 10 L 209 3 L 201 3 L 201 10 L 195 10 L 195 16 L 189 16 L 189 24 L 195 24 L 195 30 L 201 30 L 201 37 Z M 208 36 L 208 29 L 214 29 L 214 23 L 220 23 L 220 17 L 214 17 L 214 11 L 208 11 L 208 4 L 202 4 L 202 11 L 196 11 L 196 17 L 190 17 L 190 23 L 196 23 L 196 29 L 202 29 L 202 36 Z" fill="rgb(1, 1, 1)" fill-rule="evenodd" /><path d="M 208 11 L 208 4 L 202 4 L 202 11 Z" fill="rgb(255, 0, 77)" fill-rule="evenodd" /><path d="M 202 17 L 202 11 L 196 11 L 196 17 Z" fill="rgb(255, 163, 0)" fill-rule="evenodd" /><path d="M 190 61 L 190 29 L 165 29 L 165 42 L 159 42 L 159 61 Z M 128 61 L 128 54 L 134 54 L 134 29 L 109 29 L 109 36 L 103 36 L 103 61 Z M 97 61 L 97 54 L 85 54 L 85 36 L 97 36 L 97 29 L 78 29 L 78 36 L 72 36 L 72 61 Z M 66 61 L 66 54 L 60 54 L 60 36 L 66 36 L 66 29 L 41 29 L 41 36 L 48 36 L 48 54 L 41 54 L 41 61 Z M 17 61 L 17 48 L 35 48 L 35 29 L 11 29 L 11 36 L 4 36 L 4 61 Z M 183 54 L 183 48 L 171 48 L 171 54 Z M 122 54 L 122 36 L 116 36 L 116 54 Z M 153 48 L 153 42 L 140 42 L 140 48 Z M 183 42 L 183 36 L 171 36 L 171 42 Z M 23 42 L 23 36 L 17 36 L 17 42 Z M 208 29 L 208 23 L 214 23 L 214 17 L 208 17 L 208 11 L 202 11 L 202 17 L 196 17 L 196 23 L 202 23 L 202 29 Z" fill="rgb(255, 241, 232)" fill-rule="evenodd" /><path d="M 214 17 L 214 11 L 208 11 L 208 17 Z" fill="rgb(255, 204, 170)" fill-rule="evenodd" /><path d="M 196 23 L 196 17 L 190 17 L 190 23 Z" fill="rgb(255, 236, 39)" fill-rule="evenodd" /><path d="M 220 23 L 220 17 L 214 17 L 214 23 Z" fill="rgb(255, 119, 168)" fill-rule="evenodd" /><path d="M 202 29 L 202 23 L 196 23 L 196 29 Z" fill="rgb(0, 228, 54)" fill-rule="evenodd" /><path d="M 214 29 L 214 23 L 208 23 L 208 29 Z" fill="rgb(131, 118, 156)" fill-rule="evenodd" /><path d="M 208 36 L 208 29 L 202 29 L 202 36 Z" fill="rgb(41, 173, 255)" fill-rule="evenodd" /></svg>