<?xml version="1.0" encoding="utf-8" ?>
<svg baseProfile="full" height="64px" version="1.1" width="396px" xmlns="http://www.w3.org/2000/svg" xmlns:ev="http://www.w3.org/2001/xml-events" xmlns:xlink="http://www.w3.org/1999/xlink"><defs /><path d="M 48 64 L 48 60 L 52 60 L 52 56 L 56 56 L 56 40 L 60 40 L 60 36 L 64 36 L 64 16 L 56 16 L 56 4 L 52 4 L 52 0 L 4 0 L 4 4 L 0 4 L 0 60 L 4 60 L 4 64 L 24 64 L 24 60 L 28 60 L 28 64 Z M 44 60 L 44 56 L 48 56 L 48 52 L 52 52 L 52 36 L 56 36 L 56 20 L 60 20 L 60 32 L 52 32 L 52 8 L 48 8 L 48 4 L 8 4 L 8 8 L 4 8 L 4 56 L 8 56 L 8 60 L 20 60 L 20 56 L 32 56 L 32 60 Z M 385 56 L 385 27 L 366 27 L 366 18 L 376 18 L 376 37 L 366 37 L 366 46 L 395 46 L 395 18 L 385 18 L 385 8 L 357 8 L 357 18 L 347 18 L 347 46 L 357 46 L 357 56 Z M 328 56 L 328 8 L 299 8 L 299 18 L 289 18 L 289 27 L 299 27 L 299 37 L 289 37 L 289 46 L 299 46 L 299 56 Z M 212 56 L 212 37 L 222 37 L 222 46 L 193 46 L 193 18 L 222 18 L 222 27 L 212 27 L 212 8 L 183 8 L 183 18 L 174 18 L 174 46 L 183 46 L 183 56 Z M 164 56 L 164 46 L 154 46 L 154 18 L 164 18 L 164 8 L 126 8 L 126 18 L 135 18 L 135 46 L 126 46 L 126 56 Z M 97 56 L 97 18 L 106 18 L 106 8 L 68 8 L 68 18 L 77 18 L 77 56 Z M 32 48 L 32 40 L 36 40 L 36 44 L 16 44 L 16 40 L 20 40 L 20 48 Z M 337 46 L 337 37 L 308 37 L 308 46 Z M 270 37 L 270 27 L 241 27 L 241 37 Z M 44 36 L 44 16 L 8 16 L 8 36 Z M 36 32 L 36 20 L 32 20 L 32 32 Z M 20 32 L 20 20 L 16 20 L 16 32 Z M 337 27 L 337 18 L 308 18 L 308 27 Z" fill="rgb(244, 244, 244)" fill-rule="evenodd" /><path d="M 48 56 L 48 52 L 4 52 L 4 56 Z M 44 16 L 44 12 L 8 12 L 8 16 Z M 48 8 L 48 4 L 8 4 L 8 8 Z" fill="rgb(41, 54, 111)" fill-rule="evenodd" /><path d="M 44 60 L 44 56 L 32 56 L 32 60 Z M 20 60 L 20 56 L 8 56 L 8 60 Z M 386 57 L 386 47 L 396 47 L 396 17 L 386 17 L 386 7 L 356 7 L 356 17 L 346 17 L 346 47 L 356 47 L 356 57 Z M 329 57 L 329 47 L 338 47 L 338 36 L 329 36 L 329 28 L 338 28 L 338 17 L 329 17 L 329 7 L 298 7 L 298 17 L 288 17 L 288 28 L 298 28 L 298 36 L 288 36 L 288 47 L 298 47 L 298 57 Z M 213 57 L 213 47 L 223 47 L 223 36 L 211 36 L 211 45 L 194 45 L 194 19 L 211 19 L 211 28 L 223 28 L 223 17 L 213 17 L 213 7 L 182 7 L 182 17 L 173 17 L 173 47 L 182 47 L 182 57 Z M 165 57 L 165 45 L 155 45 L 155 19 L 165 19 L 165 7 L 125 7 L 125 19 L 134 19 L 134 45 L 125 45 L 125 57 Z M 98 57 L 98 19 L 107 19 L 107 7 L 67 7 L 67 19 L 76 19 L 76 57 Z M 385 56 L 385 27 L 366 27 L 366 18 L 376 18 L 376 37 L 366 37 L 366 46 L 395 46 L 395 18 L 385 18 L 385 8 L 357 8 L 357 18 L 347 18 L 347 46 L 357 46 L 357 56 Z M 328 56 L 328 8 L 299 8 L 299 18 L 289 18 L 289 27 L 299 27 L 299 37 L 289 37 L 289 46 L 299 46 L 299 56 Z M 212 56 L 212 37 L 222 37 L 222 46 L 193 46 L 193 18 L 222 18 L 222 27 L 212 27 L 212 8 L 183 8 L 183 18 L 174 18 L 174 46 L 183 46 L 183 56 Z M 164 56 L 164 46 L 154 46 L 154 18 L 164 18 L 164 8 L 126 8 L 126 18 L 135 18 L 135 46 L 126 46 L 126 56 Z M 97 56 L 97 18 L 106 18 L 106 8 L 68 8 L 68 18 L 77 18 L 77 56 Z M 52 52 L 52 36 L 56 36 L 56 20 L 60 20 L 60 32 L 52 32 L 52 8 L 48 8 L 48 52 Z M 337 46 L 337 37 L 308 37 L 308 46 Z M 384 45 L 384 28 L 377 28 L 377 38 L 367 38 L 367 45 Z M 327 45 L 327 38 L 309 38 L 309 45 Z M 271 38 L 271 26 L 240 26 L 240 38 Z M 270 37 L 270 27 L 241 27 L 241 37 Z M 36 32 L 36 20 L 32 20 L 32 32 Z M 20 32 L 20 20 L 16 20 L 16 32 Z M 337 27 L 337 18 L 308 18 L 308 27 Z M 375 26 L 375 19 L 367 19 L 367 26 Z M 327 26 L 327 19 L 309 19 L 309 26 Z" fill="rgb(26, 28, 44)" fill-rule="evenodd" /><path d="M 48 52 L 48 8 L 4 8 L 4 52 Z M 32 48 L 32 40 L 36 40 L 36 44 L 16 44 L 16 40 L 20 40 L 20 48 Z M 44 36 L 44 12 L 8 12 L 8 36 Z" fill="rgb(65, 166, 246)" fill-rule="evenodd" /></svg>